<?xml version="1.0" encoding="UTF-8" standalone="no"?>
<svg width="101px" height="105px" viewBox="0 0 101 105" version="1.1" xmlns="http://www.w3.org/2000/svg" xmlns:xlink="http://www.w3.org/1999/xlink" xmlns:sketch="http://www.bohemiancoding.com/sketch/ns">
    <!-- Generator: Sketch 3.2.2 (9983) - http://www.bohemiancoding.com/sketch -->
    <title>Shape</title>
    <desc>Created with Sketch.</desc>
    <defs></defs>
    <g id="Page-1" stroke="none" stroke-width="1" fill="none" fill-rule="evenodd" sketch:type="MSPage">
        <path d="M70.0426833,12.7205859 C63.018015,16.9950293 55.5842271,22.577666 48.7090842,29.7989795 C44.3141496,34.416416 40.7773991,38.9023975 37.9278211,43.1062939 L20.5069836,46.4860838 L0.047,67.9830908 L18.2926202,68.5793556 L31.1416513,55.0891114 C26.6061763,64.95583 26.206042,71.4973094 26.206042,71.4973094 L31.9540305,77.5257861 C31.9540305,77.5257861 38.3830387,76.8844041 47.8477746,72.0745019 L34.7240114,85.8373975 L35.2982828,105 L55.7674471,83.515913 L58.9987983,65.1355811 C63.0424313,62.1598975 67.3184096,58.4658253 71.6675396,53.9029394 C78.5456121,46.6785497 83.8597721,38.8767627 87.9341692,31.5016406 C83.4444996,30.5427979 79.3274221,28.5805078 76.077905,25.1782617 C72.828095,21.7568408 70.94677,17.4342041 70.0426833,12.7205859 L70.0426833,12.7205859 L70.0426833,12.7205859 Z M76.8229929,8.90479981 C77.31171,13.5190576 78.7716096,17.2385596 81.1964413,19.7718896 C83.6155113,22.3338281 87.1520663,23.8634033 91.5624321,24.3701514 C98.0067738,10.6971826 100.047,0 100.047,0 C100.047,0 89.8582717,2.13875977 76.8229929,8.90479981 L76.8229929,8.90479981 Z M65.9333217,44.7754247 C70.652985,44.7754247 74.4790279,40.7584484 74.4790279,35.8032568 C74.4790279,30.8480653 70.652985,26.8310889 65.9333217,26.8310889 C61.2136583,26.8310889 57.3876154,30.8480653 57.3876154,35.8032568 C57.3876154,40.7584484 61.2136583,44.7754247 65.9333217,44.7754247 L65.9333217,44.7754247 Z" id="Shape" fill="#1C1C1C" sketch:type="MSShapeGroup"></path>
    </g>
</svg>